<?xml version="1.0" encoding="utf-8"?>
<!-- Generator: Adobe Illustrator 27.5.0, SVG Export Plug-In . SVG Version: 6.00 Build 0)  -->
<svg version="1.1" id="Layer_1" xmlns="http://www.w3.org/2000/svg" xmlns:xlink="http://www.w3.org/1999/xlink" x="0px" y="0px"
	 viewBox="0 0 64 64" style="enable-background:new 0 0 64 64;" xml:space="preserve">
<path d="M26.7,54h10.6c3.1,0,5.6-2.5,5.6-5.6V32.5c0-1.5-0.6-2.9-1.6-3.9c1-0.5,1.6-1.7,1.6-3.1v-0.4c0-1.2-0.5-2.3-1.3-2.9
	c-0.3-3.1-2.9-5.7-6.6-6.7V13c0-1.7-1.4-3-3-3c-1.7,0-3,1.4-3,3v2.5c-3.7,1-6.3,3.6-6.6,6.7c-0.8,0.6-1.3,1.6-1.3,2.9v0.4
	c0,1.4,0.7,2.6,1.6,3.1c-1,1-1.6,2.4-1.6,3.9v15.9C21.1,51.5,23.6,54,26.7,54z M41,48.4c0,2-1.7,3.7-3.7,3.7H26.7
	c-2,0-3.7-1.7-3.7-3.7v-1.6h5.7c0.5,0,1-0.4,1-1c0-0.5-0.4-1-1-1H23v-3.4h5.7c0.5,0,1-0.4,1-1c0-0.5-0.4-1-1-1H23v-3.4h12.3
	c0.5,0,1-0.4,1-1c0-0.5-0.4-1-1-1H23v-1.6c0-2,1.7-3.7,3.7-3.7h10.6c2,0,3.7,1.7,3.7,3.7V48.4z M30.1,17.3
	C30.1,17.3,30.1,17.3,30.1,17.3c0,0,0.1,0,0.1,0c0,0,0.1,0,0.1,0c0,0,0.1,0,0.1,0c0,0,0.1,0,0.1,0c0,0,0,0,0.1,0c0,0,0.1,0,0.1-0.1
	c0,0,0,0,0.1-0.1c0,0,0,0,0.1-0.1c0,0,0-0.1,0.1-0.1c0,0,0,0,0-0.1c0,0,0-0.1,0-0.1c0,0,0-0.1,0-0.1c0,0,0-0.1,0-0.1
	c0,0,0-0.1,0-0.1c0,0,0,0,0,0V13c0-0.6,0.5-1.1,1.1-1.1c0.6,0,1.1,0.5,1.1,1.1v3.3c0,0,0,0,0,0c0,0,0,0.1,0,0.1c0,0,0,0.1,0,0.1
	c0,0,0,0.1,0,0.1c0,0,0,0.1,0,0.1c0,0,0,0,0,0.1c0,0,0,0.1,0.1,0.1c0,0,0,0,0.1,0.1c0,0,0,0,0.1,0.1c0,0,0.1,0,0.1,0.1
	c0,0,0,0,0.1,0.1c0,0,0.1,0,0.1,0c0,0,0.1,0,0.1,0c0,0,0,0,0.1,0c0,0,0.1,0,0.1,0c0,0,0,0,0,0c3,0.6,5.2,2.3,5.7,4.5h-1.1
	c-0.5,0-1,0.4-1,1c0,0.5,0.4,1,1,1h1.8c0.3,0,0.7,0.6,0.7,1.4v0.4c0,0.8-0.4,1.4-0.7,1.4h-3H26.7h-3c-0.3,0-0.7-0.6-0.7-1.4v-0.4
	c0-0.8,0.4-1.4,0.7-1.4h10.4c0.5,0,1-0.4,1-1c0-0.5-0.4-1-1-1h-9.7C24.9,19.6,27.1,17.8,30.1,17.3z"/>
</svg>
