<?xml version="1.0" encoding="utf-8"?>
<!-- Generator: Adobe Illustrator 27.5.0, SVG Export Plug-In . SVG Version: 6.00 Build 0)  -->
<svg version="1.1" id="Layer_1" xmlns="http://www.w3.org/2000/svg" xmlns:xlink="http://www.w3.org/1999/xlink" x="0px" y="0px"
	 viewBox="0 0 64 64" style="enable-background:new 0 0 64 64;" xml:space="preserve">
<g>
	<path d="M28,52.6c-4.4-0.7-6.7-1.8-9.5-8.2c-0.9-2-1.7-4.2-2.5-6.7c-2-6.3-0.6-7.5,2-9.2c0.7-0.4,1.4-1,2.2-1.8
		c0.3-0.3,0.3-0.7,0-1c-0.2-0.2-0.6-0.3-0.9-0.1c-0.3-1-0.4-2-0.4-3.1c0-5.5,4.1-11.1,11.8-11.1c4.2,0,6.6,1.9,7.9,3.6
		c1.9,2.4,2.5,5.7,1.7,8.8c-0.6,2.6-2,3.4-3.3,4.2c-1.5,0.9-3,1.8-2.6,4.9c0,0.3,0.3,0.6,0.7,0.6c0,0,0.1,0,0.1,0
		c0.4-0.1,0.6-0.4,0.6-0.8c-0.3-2.2,0.5-2.7,1.9-3.5c1.4-0.8,3.2-1.9,4-5c0.9-3.5,0.2-7.3-2-10c-2.1-2.6-5.3-4.1-9-4.1
		c-6.4,0-13.2,4.4-13.2,12.4c0,1.4,0.2,2.8,0.7,4.1c-0.4,0.3-0.7,0.6-1,0.8c-3.5,2.2-4.7,4.3-2.6,10.8c0.8,2.5,1.6,4.8,2.5,6.9
		c3.1,7.3,6.2,8.3,10.5,9c0,0,0.1,0,0.1,0c0.3,0,0.6-0.2,0.7-0.6C28.6,53.1,28.4,52.7,28,52.6z"/>
	<path d="M33.9,24.2c-0.6,0.1-1.9,0.5-3,2c-0.4,0.5-1.1,0.7-1.6,0.5c-0.8-0.3-1.5-0.8-2-1.5c-0.2-0.3-0.6-0.4-1-0.2
		c-0.3,0.2-0.4,0.6-0.2,1c0.6,0.9,1.5,1.6,2.6,2c1.1,0.4,2.4,0,3.2-1c0.8-1.1,1.7-1.4,2.1-1.4c0.4-0.1,0.8-0.4,1-0.7
		c0.8-1.6,1.1-2.2,1.2-2.5l0,0c1.1-2.1,1-4.4,0.8-6.6c0-0.2-0.2-0.4-0.3-0.5c-0.2-0.1-0.4-0.1-0.6,0c-0.5,0.3-1,0.6-1.5,0.8
		c-0.5,0.3-1,0.6-1.5,0.8c-1.5,0.7-2.7,0.8-3.9,0.9c-1.4,0.1-2.9,0.3-4.6,1.5c-3,2.3-2.8,6.7-0.9,9.5c0.1,0.2,0.3,0.3,0.6,0.3
		c0.1,0,0.3,0,0.4-0.1c0.3-0.2,0.4-0.6,0.2-1c-1.6-2.3-1.8-5.8,0.6-7.6c1.4-1,2.6-1.1,3.9-1.3c1.3-0.1,2.7-0.2,4.4-1.1
		c0.6-0.3,1.1-0.6,1.6-0.9c0.2-0.1,0.3-0.2,0.5-0.3c0.1,1.6,0,3.3-0.8,4.8C35.1,21.8,33.9,24.2,33.9,24.2z"/>
	<path d="M49.1,36.2c-0.5-2.4-2.5-4.3-4.9-4.8c-2.2-0.4-4.4,0.1-5.9,1.3c-1.3,1.1-2,2.7-1.9,4.6c0,0.1,0,0.1,0,0.2l0.2,0.5
		c-0.3,0.2-0.6,0.5-0.9,0.9c-0.5-1.1-1.4-2.1-2.8-3l-0.4-0.3c-0.8-0.5-1.2-0.8-1.7-1.8c-0.2-0.3-0.6-0.5-0.9-0.3
		c-0.3,0.2-0.5,0.6-0.3,0.9c0.7,1.4,1.4,1.8,2.2,2.4l0.4,0.3c1.1,0.8,2.5,2,2.5,3.5c0,1.3-0.9,2.6-2.6,2.7c-0.5,0-1.1-0.1-1.7-0.4
		l-0.8-0.4c-0.3-0.2-0.8,0-0.9,0.3s0,0.8,0.3,0.9l0.8,0.4c0.6,0.3,1.2,0.5,1.8,0.5c0,0.2,0.1,0.4,0.3,0.5c2.1,1.4,4.2,4.2,4.2,4.2
		c0.1,0.2,0.3,0.3,0.5,0.3c0,0,0,0,0,0c0.2,0,0.4-0.1,0.5-0.2c2-2,6.2-2.7,6.2-2.7c0.4-0.1,0.6-0.4,0.6-0.8
		c-0.1-0.4-0.4-0.6-0.8-0.6c-0.2,0-4,0.7-6.4,2.6c-0.7-0.8-2-2.4-3.5-3.5c0.9-0.3,1.6-0.9,2.1-1.6c0.2,0.4,0.5,0.8,0.9,1.1
		c0.7,0.5,1.6,0.6,2.1,0.6c0.3,0,0.6,0,0.6,0c0.4-0.1,0.6-0.4,0.6-0.8c-0.1-0.4-0.4-0.6-0.8-0.6c0,0-1,0.2-1.7-0.4
		c-0.4-0.3-0.6-0.8-0.7-1.4c-0.2-1.8,1.1-2.3,1.2-2.3c0.2-0.1,0.3-0.2,0.4-0.4s0.1-0.4,0-0.5l-0.4-0.9c0-1.4,0.5-2.6,1.4-3.4
		c1.2-1,3-1.4,4.7-1c1.9,0.4,3.4,1.9,3.8,3.8c0.3,1.4,0,2.9-0.8,4.1c-0.7,1.1-1.9,1.8-3.6,2.1c-0.4,0.1-0.6,0.4-0.5,0.8
		c0.1,0.4,0.4,0.6,0.8,0.5c2-0.4,3.5-1.3,4.4-2.7C49.1,39.9,49.5,38,49.1,36.2z"/>
	<path d="M42.9,49.8c-3,1.8-6.1,2.6-6.9,2.8c-3.3-1.4-5.3-5.4-5.3-5.5c-0.2-0.3-0.6-0.5-0.9-0.3c-0.3,0.2-0.5,0.5-0.3,0.9l-1.3-0.5
		c-0.4-0.2-0.7-0.5-0.9-0.9l-2.5-6.5C24.3,38.4,24,37,24,35.5c0-0.4-0.3-0.7-0.7-0.7s-0.7,0.3-0.7,0.7c0,1.6,0.3,3.2,0.9,4.7
		l2.5,6.5c0.3,0.8,0.9,1.4,1.7,1.7l2.7,1.1c0.1,0,0.1,0,0.2,0c1,1.5,2.8,3.4,5.1,4.4c0.1,0,0.2,0,0.3,0c0,0,0.1,0,0.1,0
		c0.2,0,3.8-0.8,7.6-3c0.3-0.2,0.4-0.6,0.2-0.9S43.3,49.6,42.9,49.8z"/>
</g>
</svg>
