<?xml version="1.0" encoding="utf-8"?>
<!-- Generator: Adobe Illustrator 27.5.0, SVG Export Plug-In . SVG Version: 6.00 Build 0)  -->
<svg version="1.1" id="Layer_1" xmlns="http://www.w3.org/2000/svg" xmlns:xlink="http://www.w3.org/1999/xlink" x="0px" y="0px"
	 viewBox="0 0 64 64" style="enable-background:new 0 0 64 64;" xml:space="preserve">
<path d="M49,34.9c0.4-0.9,0.7-2,0.7-3.3c0-3.4-2.1-6.2-4.9-6.8c0.2-0.6,0.3-1.3,0.3-2.1c0-3.6-1.6-6.8-4.7-9.1
	c-2.3-1.7-4.5-2.4-4.6-2.4c-0.5-0.1-1,0.1-1.2,0.5c-0.3,0.4-0.2,1,0,1.4c0,0,0.7,1.1,0.3,1.9c-0.2,0.5-0.8,0.9-1.8,1.3
	c-1.4,0.5-3.5,0.8-6.1,0.8c-2.2,0-3.8,0.6-4.9,1.7c-1,1-1.5,2.4-1.5,4.1c0,0.7,0.1,1.4,0.3,2h-0.6c-3.3,0-6,3.1-6,6.9
	c0,1.1,0.2,2.3,0.7,3.3c-3,1.4-5.1,4.7-5.1,8.7c0,5.1,3.6,9.3,8,9.3h28c4.4,0,8-4.2,8-9.3C54,39.6,51.9,36.3,49,34.9z M46,50.5H18
	c-3.2,0-5.8-3.1-5.8-7c0-3.8,2.6-7,5.8-7h13.9c0.6,0,1.1-0.5,1.1-1.2s-0.5-1.2-1.1-1.2H18c-0.2,0-0.5,0-0.7,0
	c-0.5-0.8-0.7-1.7-0.7-2.6c0-2.5,1.7-4.6,3.8-4.6h3.9c0.6,0,1.1-0.5,1.1-1.2c0-0.6-0.5-1.2-1.1-1.2h-0.9c-0.3-0.6-0.5-1.3-0.5-2
	c0-1.6,0.5-3.4,4.1-3.4c5.6,0,8.8-1.1,9.9-3.4c0.2-0.5,0.3-1.1,0.3-1.6c0.6,0.3,1.2,0.7,1.8,1.2c2.5,1.9,3.8,4.3,3.8,7.2
	c0,1-0.1,1.5-0.5,2H29.6c-0.6,0-1.1,0.5-1.1,1.2c0,0.6,0.5,1.2,1.1,1.2h14c2.1,0,3.8,2,3.8,4.6c0,1.1-0.2,2-0.7,2.6
	c-0.3,0-0.5,0-0.8,0h-6c-0.6,0-1.1,0.5-1.1,1.2s0.5,1.2,1.1,1.2h6c0.3,0,0.7,0,1,0.1c0,0,0,0,0.1,0c2.7,0.6,4.8,3.4,4.8,6.9
	C51.8,47.4,49.2,50.5,46,50.5z"/>
</svg>
