<?xml version="1.0" encoding="utf-8"?>
<!-- Generator: Adobe Illustrator 27.5.0, SVG Export Plug-In . SVG Version: 6.00 Build 0)  -->
<svg version="1.1" id="Layer_1" xmlns="http://www.w3.org/2000/svg" xmlns:xlink="http://www.w3.org/1999/xlink" x="0px" y="0px"
	 viewBox="0 0 64 64" style="enable-background:new 0 0 64 64;" xml:space="preserve">
<g>
	<path d="M54,49.9c0-0.2,0-4.2-2.2-5.6c0.1-0.4,0.2-0.9,0.2-1.3c0.1,0,0.2-0.1,0.2-0.2c1.2-1.6,1.9-3.5,1.9-5.6
		c0-5.1-4.2-9.3-9.3-9.3c-2.2,0-4.4,0.8-6.1,2.3C38.5,30,38.3,29.9,38,30c-1.7,0.4-2.9,1.3-3.6,2.6c-0.4,0.7-0.6,1.5-0.7,2.3
		c-0.1,0-0.2,0.1-0.2,0.2c-0.9,1.2-2.1,1.9-3.2,2.4c-0.1-0.3-0.3-0.6-0.5-0.9l0.1-0.1c0.6-0.4,1-1,1.2-1.7s0-1.5-0.4-2.1L30.3,32
		c-0.4-0.6-1-1-1.7-1.2c-0.7-0.1-1.5,0-2.1,0.4l-0.3,0.2c-1.6-1.4-3.6-2.2-5.7-2.3c-2.8-0.1-5.6,1-7.6,3.1C11,34,9.9,36.6,10,39.3
		c0.1,2.7,1.2,5.2,3.1,7c2.2,2,4.4,3.3,6.7,3.9c0.2,0,0.3,0.1,0.5,0.1v0.6c0,0.8,0.4,1.6,1,2.1c0.5,0.4,1.1,0.7,1.8,0.7
		c0.2,0,0.3,0,0.5,0l1.6-0.3c0.9,0.2,5.5,1.1,10.1-2.2c0.1-0.1,0.2-0.2,0.2-0.3c0.1-0.2,1.5-4-3.7-7.7c-0.3-0.2-0.7-0.1-1,0.2
		c-0.2,0.3-0.1,0.7,0.2,1c3.7,2.7,3.4,5.2,3.3,5.9c-4.4,3-8.8,1.8-8.8,1.8c-0.1,0-0.2,0-0.3,0l-1.7,0.3c-0.4,0.1-0.8,0-1.1-0.3
		c-0.3-0.3-0.5-0.6-0.5-1v-0.4c0.1,0,0.3,0,0.4,0c0.7,0,1.4-0.1,2.1-0.3c0.4-0.1,0.6-0.5,0.5-0.9c-0.1-0.4-0.5-0.6-0.9-0.5
		c-1.1,0.3-2.3,0.3-3.6,0c-2.1-0.6-4.1-1.8-6.1-3.6c-1.7-1.5-2.7-3.7-2.7-6c0-1.6,0.4-3.2,1.2-4.5c0.2,0,0.3,0,0.5,0
		c2.1-1,3.5-0.9,4.5,0.3c0.6,0.7,0.5,1.8-0.2,2.4c-0.5,0.4-1.3,0.4-1.7-0.2c-0.1-0.2-0.2-0.3-0.2-0.5c0-0.4-0.3-0.7-0.7-0.7
		c-0.4,0-0.7,0.3-0.7,0.7c0,0.5,0.2,1.1,0.5,1.5c0.5,0.6,1.2,0.9,2,0.9c0.6,0,1.2-0.2,1.6-0.6c1.3-1.1,1.5-3,0.4-4.3
		c-1.1-1.3-2.6-1.8-4.4-1.3c1.7-1.5,3.9-2.4,6.2-2.3c2.2,0.1,4.2,1,5.7,2.7c0.1,0.1,0.2,0.2,0.3,0.4l0.1,0.1c0,0,0,0,0,0
		c0.1,0.2,0.3,0.3,0.5,0.3c0,0,0,0,0,0c0,0,0,0,0.1,0c0.1,0,0.3,0,0.4-0.1c0,0,0,0,0.1,0c0,0,0,0,0,0c0,0,0,0,0,0c0,0,0,0,0,0
		c0,0,0,0,0,0c0,0,0-0.1,0.1-0.1c0,0,0.1-0.1,0.1-0.1c0,0,0-0.1,0-0.1c0,0,0-0.1,0-0.1c0,0,0-0.1,0-0.1c0,0,0-0.1,0-0.1
		c0,0,0-0.1-0.1-0.1c0,0,0-0.1,0-0.1l-0.1-0.2c-0.1-0.1-0.2-0.2-0.3-0.4l0.1-0.1c0.3-0.2,0.7-0.3,1-0.2c0.4,0.1,0.7,0.3,0.9,0.6
		l0.5,0.7c0.2,0.3,0.3,0.7,0.2,1c-0.1,0.4-0.3,0.7-0.6,0.9L29,35.5c-0.1,0-0.3,0-0.4,0.1c-0.3,0.2-0.5,0.6-0.3,0.9
		c0.1,0.2,0.5,0.9,0.7,1.5c-0.2,0.1-0.3,0.1-0.5,0.2c-0.5,0.2-1,0.3-1.3,0.5c-1.2,0.6-2.1,1.5-2.6,2.5c-0.5,1.1-0.6,2.5-0.2,3.7
		c0.6,1.8,2.2,3.3,4.6,4.3c0.1,0,0.2,0,0.3,0c0.3,0,0.5-0.2,0.6-0.4c0.1-0.4,0-0.8-0.4-0.9c-1.4-0.6-3.2-1.6-3.8-3.4
		c-0.3-0.9-0.2-1.9,0.2-2.7c0.5-1,1.4-1.6,2-1.9c0.3-0.1,0.7-0.3,1.1-0.4c1.3-0.4,3.2-1.1,4.8-2.6c0.1,0.9,0.3,1.5,0.3,1.6
		c0.1,0.3,0.4,0.5,0.7,0.5c0.1,0,0.1,0,0.2,0c0.4-0.1,0.6-0.5,0.4-0.9c0,0-0.9-2.8,0.2-4.8c0.4-0.8,1.2-1.4,2.2-1.7
		c0,0.1,0.1,0.2,0.2,0.3c0.3,0.3,0.7,0.2,1,0c1.5-1.6,3.6-2.5,5.8-2.5c4.4,0,7.9,3.5,7.9,7.9c0,1.3-0.3,2.6-0.9,3.7
		c-0.8-3.1-3.6-5.4-7-5.4c-4,0-7.2,3.2-7.2,7.2c0,7.9,4,10,6.2,10c0.1,0,2.1,0,4.5-1.7c0.4,1,1.4,2.4,3.1,2.4c0.7,0,1.4-0.3,1.8-0.7
		C54,51.6,54,50,54,49.9z M52.1,51.6c-0.2,0.2-0.5,0.3-0.9,0.3c-1.1,0-1.7-1.3-2-1.9c0.1-0.1,0.3-0.2,0.4-0.4c0.3-0.3,0.3-0.7,0-1
		c-0.3-0.3-0.7-0.3-1,0c-2.5,2.5-5,2.5-5,2.5c-3.5,0-4.8-5.1-4.8-8.6c0-3.2,2.6-5.8,5.8-5.8s5.8,2.6,5.8,5.8c0,0.4,0,0.7-0.1,1.1
		c-0.2,0-0.4-0.1-0.6-0.1c-2.3,0-4.5,2.2-4.6,2.3c-0.3,0.3-0.3,0.7,0,1c0.3,0.3,0.7,0.3,1,0c0,0,1.9-1.9,3.6-1.9
		c2.7,0,2.7,4.8,2.8,4.8C52.6,50.2,52.6,51.1,52.1,51.6z"/>
	<path d="M24.4,36.1c-0.4,0-0.7,0.3-0.7,0.7c0,1.3-1.1,1.4-1.4,1.4c-0.4,0-0.7,0.3-0.7,0.7c0,0.4,0.3,0.7,0.7,0.7
		c1.1,0,2.7-0.7,2.7-2.7C25.1,36.4,24.8,36.1,24.4,36.1z"/>
	<path d="M18.2,42.3c0,1.3-1.1,1.4-1.4,1.4c-0.4,0-0.7,0.3-0.7,0.7c0,0.4,0.3,0.7,0.7,0.7c1.1,0,2.7-0.7,2.7-2.7
		c0-0.4-0.3-0.7-0.7-0.7C18.6,41.6,18.2,41.9,18.2,42.3z"/>
	<path d="M17.6,20.3c0.4,0,0.7-0.3,0.7-0.7v-1.4c0-0.4-0.3-0.7-0.7-0.7c-0.4,0-0.7,0.3-0.7,0.7v1.4C16.9,20,17.2,20.3,17.6,20.3z"/>
	<path d="M14.8,21.7h1.4c0.4,0,0.7-0.3,0.7-0.7c0-0.4-0.3-0.7-0.7-0.7h-1.4c-0.4,0-0.7,0.3-0.7,0.7C14.1,21.4,14.4,21.7,14.8,21.7z"
		/>
	<path d="M18.9,21.7h1.4c0.4,0,0.7-0.3,0.7-0.7c0-0.4-0.3-0.7-0.7-0.7h-1.4c-0.4,0-0.7,0.3-0.7,0.7C18.2,21.4,18.6,21.7,18.9,21.7z"
		/>
	<path d="M17.6,21.7c-0.4,0-0.7,0.3-0.7,0.7v1.4c0,0.4,0.3,0.7,0.7,0.7c0.4,0,0.7-0.3,0.7-0.7v-1.4C18.2,22,17.9,21.7,17.6,21.7z"/>
	<path d="M24.4,15.5c1.5,0,2.7-1.2,2.7-2.7S26,10,24.4,10c-1.5,0-2.7,1.2-2.7,2.7S22.9,15.5,24.4,15.5z M24.4,11.4
		c0.8,0,1.4,0.6,1.4,1.4c0,0.8-0.6,1.4-1.4,1.4s-1.4-0.6-1.4-1.4C23.1,12,23.7,11.4,24.4,11.4z"/>
	<path d="M40.9,25.1c1.3,0,2.6-0.3,3.7-1c0.2-0.1,0.4-0.4,0.3-0.7c0-0.3-0.2-0.5-0.5-0.6c-2.5-0.6-4.2-2.8-4.2-5.3s1.7-4.7,4.2-5.3
		c0.3-0.1,0.5-0.3,0.5-0.6c0-0.3-0.1-0.6-0.3-0.7c-1.1-0.6-2.4-1-3.7-1c-4.2,0-7.6,3.4-7.6,7.6S36.8,25.1,40.9,25.1z M40.9,11.4
		c0.5,0,1,0.1,1.5,0.2c-2.1,1.2-3.5,3.5-3.5,6c0,2.6,1.4,4.8,3.5,6c-0.5,0.1-1,0.2-1.5,0.2c-3.4,0-6.2-2.8-6.2-6.2
		S37.5,11.4,40.9,11.4z"/>
</g>
</svg>
