<?xml version="1.0" encoding="utf-8"?>
<!-- Generator: Adobe Illustrator 27.5.0, SVG Export Plug-In . SVG Version: 6.00 Build 0)  -->
<svg version="1.1" id="Layer_1" xmlns="http://www.w3.org/2000/svg" xmlns:xlink="http://www.w3.org/1999/xlink" x="0px" y="0px"
	 viewBox="0 0 64 64" style="enable-background:new 0 0 64 64;" xml:space="preserve">
<path d="M43.8,45.6c-0.6,0-1.1,0.5-1.1,1.1c0,0.6,0.5,1.1,1.1,1.1c5.9,0,10.2-4.7,10.2-11.1V33v-3.9v-6.6V19c0-1.8-1.5-3.3-3.3-3.3
	H13.3c-1.8,0-3.3,1.5-3.3,3.3v3.5v6.6V33v3.7c0,6.4,4.3,11.1,10.2,11.1c0.6,0,1.1-0.5,1.1-1.1c0-0.6-0.5-1.1-1.1-1.1
	c-4.7,0-8.1-3.8-8.1-8.9v-0.6c0.4,0.1,0.7,0.2,1.1,0.2h1.1c4.4,0,9.5,2.1,9.5,8.2c0,1.8,1.5,3.3,3.3,3.3h9.6c1.8,0,3.3-1.5,3.3-3.3
	c0-5.4,3.2-8.2,9.5-8.2h1.1c0.4,0,0.8-0.1,1.1-0.2v0.6C51.8,41.9,48.4,45.6,43.8,45.6z M51.8,28.1h-7c-0.4,0-0.8-0.4-0.8-0.8v-2.9
	c0-0.4,0.4-0.8,0.8-0.8h7V28.1z M12.2,23.6h7c0.4,0,0.8,0.4,0.8,0.8v2.9c0,0.4-0.4,0.8-0.8,0.8h-7V23.6z M50.7,34.2h-1.1
	c-7.5,0-11.6,3.7-11.6,10.3c0,0.6-0.5,1.1-1.1,1.1h-9.6c-0.6,0-1.1-0.5-1.1-1.1c0-7.1-5.8-10.3-11.6-10.3h-1.1
	c-0.6,0-1.1-0.5-1.1-1.1v-2.8h7c1.6,0,3-1.3,3-3v-2.9c0-1.6-1.3-3-3-3h-7V19c0-0.6,0.5-1.1,1.1-1.1h37.4c0.6,0,1.1,0.5,1.1,1.1v2.4
	h-7c-1.6,0-3,1.3-3,3v2.9c0,1.6,1.3,3,3,3h7V33C51.8,33.7,51.3,34.2,50.7,34.2z"/>
</svg>
